<svg width="25" height="24" viewBox="0 0 25 24" fill="none" xmlns="http://www.w3.org/2000/svg">
<path fill-rule="evenodd" clip-rule="evenodd" d="M0.895508 4.8C0.895508 3.52696 1.40122 2.30606 2.3014 1.40589C3.20157 0.505713 4.42247 0 5.69551 0H20.0955C21.3685 0 22.5894 0.505713 23.4896 1.40589C24.3898 2.30606 24.8955 3.52696 24.8955 4.8V19.2C24.8955 20.473 24.3898 21.6939 23.4896 22.5941C22.5894 23.4943 21.3685 24 20.0955 24H5.69551C4.42247 24 3.20157 23.4943 2.3014 22.5941C1.40122 21.6939 0.895508 20.473 0.895508 19.2V4.8ZM5.69551 2.4C5.05899 2.4 4.44854 2.65286 3.99845 3.10294C3.54836 3.55303 3.29551 4.16348 3.29551 4.8V19.2C3.29551 19.8365 3.54836 20.447 3.99845 20.8971C4.44854 21.3471 5.05899 21.6 5.69551 21.6H12.8955V13.2H11.6955C11.3772 13.2 11.072 13.0736 10.847 12.8485C10.6219 12.6235 10.4955 12.3183 10.4955 12C10.4955 11.6817 10.6219 11.3765 10.847 11.1515C11.072 10.9264 11.3772 10.8 11.6955 10.8H12.8955V9C12.8955 7.88609 13.338 6.8178 14.1257 6.03015C14.9133 5.2425 15.9816 4.8 17.0955 4.8H17.8155C18.1338 4.8 18.439 4.92643 18.664 5.15147C18.8891 5.37652 19.0155 5.68174 19.0155 6C19.0155 6.31826 18.8891 6.62348 18.664 6.84853C18.439 7.07357 18.1338 7.2 17.8155 7.2H17.0955C16.8591 7.2 16.6251 7.24656 16.4067 7.33702C16.1883 7.42748 15.9899 7.56006 15.8227 7.72721C15.6556 7.89435 15.523 8.09278 15.4325 8.31117C15.3421 8.52956 15.2955 8.76362 15.2955 9V10.8H17.8155C18.1338 10.8 18.439 10.9264 18.664 11.1515C18.8891 11.3765 19.0155 11.6817 19.0155 12C19.0155 12.3183 18.8891 12.6235 18.664 12.8485C18.439 13.0736 18.1338 13.2 17.8155 13.2H15.2955V21.6H20.0955C20.732 21.6 21.3425 21.3471 21.7926 20.8971C22.2427 20.447 22.4955 19.8365 22.4955 19.2V4.8C22.4955 4.16348 22.2427 3.55303 21.7926 3.10294C21.3425 2.65286 20.732 2.4 20.0955 2.4H5.69551Z" fill="#F1F3F7"/>
</svg>
