<svg width="25" height="24" viewBox="0 0 25 24" fill="none" xmlns="http://www.w3.org/2000/svg">
<g clip-path="url(#clip0)">
<path d="M8.44566 21.7501C17.5 21.7501 22.4538 14.2468 22.4538 7.74195C22.4538 7.53101 22.4491 7.31539 22.4397 7.10445C23.4034 6.40755 24.235 5.54434 24.8955 4.55539C23.998 4.95469 23.0451 5.21547 22.0694 5.32882C23.0968 4.713 23.866 3.74556 24.2346 2.60585C23.2681 3.17865 22.2111 3.5827 21.1089 3.8007C20.3663 3.01165 19.3845 2.4892 18.3152 2.31414C17.2459 2.13907 16.1487 2.32114 15.1932 2.83218C14.2378 3.34323 13.4773 4.15479 13.0294 5.1414C12.5814 6.12801 12.4709 7.2347 12.715 8.29039C10.758 8.19218 8.84344 7.68379 7.09549 6.79819C5.34753 5.91258 3.8052 4.66952 2.56848 3.1496C1.93991 4.23333 1.74756 5.51573 2.03054 6.73618C2.31351 7.95662 3.05057 9.02354 4.09191 9.72007C3.31014 9.69525 2.54548 9.48477 1.86113 9.10601V9.16695C1.86043 10.3042 2.25361 11.4067 2.97382 12.2869C3.69403 13.167 4.69683 13.7706 5.81176 13.9951C5.08756 14.1932 4.32749 14.2221 3.59035 14.0794C3.90496 15.0575 4.51708 15.913 5.34128 16.5264C6.16548 17.1399 7.16063 17.4807 8.18785 17.5013C6.44393 18.8712 4.28968 19.6142 2.07207 19.6107C1.67879 19.6101 1.28591 19.586 0.895508 19.5385C3.14836 20.9838 5.76904 21.7515 8.44566 21.7501Z" fill="white"/>
</g>
<defs>
<clipPath id="clip0">
<rect width="24" height="24" fill="white" transform="translate(0.895508)"/>
</clipPath>
</defs>
</svg>
