<svg width="24" height="25" viewBox="0 0 24 25" fill="none" xmlns="http://www.w3.org/2000/svg">
<path fill-rule="evenodd" clip-rule="evenodd" d="M17.422 14.3838C17.1247 14.2351 15.6631 13.5161 15.3906 13.4169C15.1181 13.3178 14.92 13.2682 14.7218 13.5657C14.5236 13.8632 13.9538 14.5326 13.7804 14.731C13.607 14.9293 13.4336 14.9541 13.1363 14.8053C12.839 14.6566 11.8811 14.3427 10.7456 13.3302C9.86186 12.5422 9.26522 11.5689 9.09177 11.2714C8.91837 10.9739 9.07331 10.8131 9.22218 10.6649C9.35586 10.5318 9.51942 10.3178 9.66806 10.1442C9.81671 9.97068 9.86626 9.84672 9.96536 9.64841C10.0645 9.45004 10.0149 9.27648 9.94055 9.12772C9.86626 8.97896 9.27173 7.51615 9.02399 6.92111C8.7827 6.34161 8.53759 6.42002 8.35511 6.41094C8.18189 6.40231 7.98352 6.40048 7.78532 6.40048C7.58713 6.40048 7.26509 6.47489 6.99254 6.77235C6.72005 7.06987 5.95208 7.78893 5.95208 9.25168C5.95208 10.7145 7.01735 12.1277 7.16599 12.326C7.31464 12.5244 9.2623 15.5263 12.2445 16.8136C12.9538 17.1198 13.5076 17.3026 13.9393 17.4396C14.6515 17.6658 15.2995 17.6339 15.8118 17.5574C16.3829 17.472 17.5707 16.8384 17.8184 16.1442C18.0661 15.45 18.0661 14.8549 17.9918 14.731C17.9175 14.607 17.7193 14.5326 17.422 14.3838M11.9981 21.7881H11.9941C10.2196 21.7874 8.47916 21.3109 6.96087 20.4101L6.59974 20.1958L2.85695 21.1774L3.85598 17.5293L3.62081 17.1553C2.63092 15.5813 2.10811 13.7621 2.10886 11.8941C2.11103 6.44343 6.54727 2.0089 12.002 2.0089C14.6434 2.00993 17.1263 3.0396 18.9934 4.90816C20.8605 6.77679 21.8881 9.26063 21.8871 11.9021C21.8849 17.3533 17.4487 21.7881 11.9981 21.7881M20.4142 3.48811C18.1678 1.23989 15.1805 0.00117283 11.9977 -8.44642e-05C5.4398 -8.44642e-05 0.102412 5.33524 0.0997834 11.8932C0.0989261 13.9895 0.646763 16.0358 1.68792 17.8395L0 24.003L6.30727 22.3491C8.04508 23.2966 10.0017 23.7959 11.993 23.7968H11.9978H11.9979C18.5552 23.7968 23.893 18.4608 23.8957 11.9027C23.8969 8.72462 22.6605 5.73626 20.4142 3.48811" fill="white"/>
</svg>
