<svg width="174" height="24" viewBox="0 0 174 24" fill="none" xmlns="http://www.w3.org/2000/svg">
<path d="M36.2774 7.96687H33.4994V5.44501L36.2774 5.44501V7.96687ZM33.4994 9.22781H36.2774V19.7093H33.4994V9.22781Z" fill="white"/>
<path d="M44.7369 8.96729C45.8205 8.96729 46.7071 9.24312 47.3967 9.81448C48.0863 10.3858 48.4212 11.3315 48.4212 12.6516V19.7049H45.6235V13.3215C45.6235 12.7698 45.5447 12.356 45.4068 12.0605C45.131 11.5089 44.6187 11.2527 43.8503 11.2527C42.9243 11.2527 42.2938 11.6468 41.9392 12.4349C41.7619 12.8486 41.6831 13.3806 41.6831 14.0307V19.7049H38.9445V9.24311H41.5846V10.7602C41.9392 10.2282 42.2741 9.83418 42.5894 9.59775C43.1607 9.18401 43.87 8.96729 44.7369 8.96729Z" fill="white"/>
<path d="M54.8139 5.37695C54.9912 5.37695 55.1488 5.37695 55.2868 5.39665C55.4247 5.39665 55.6217 5.41636 55.8581 5.43606V7.6624C55.7202 7.64269 55.4641 7.62299 55.0897 7.62299C54.7351 7.60329 54.479 7.7018 54.3411 7.85942C54.2031 8.03674 54.144 8.21405 54.144 8.43078V9.31737H55.9369V11.2482H54.144V19.7004H51.4054V11.2482H49.8687V9.31737H51.366V8.6278C51.366 7.52448 51.563 6.7364 51.9374 6.32265C52.3314 5.69219 53.2968 5.37695 54.8139 5.37695Z" fill="white"/>
<path d="M62.238 17.7679C63.0261 17.7679 63.6566 17.4723 64.0703 16.901C64.5038 16.3296 64.7205 15.5218 64.7205 14.4776C64.7205 13.4137 64.5038 12.6059 64.0703 12.0543C63.6566 11.4829 63.0261 11.1874 62.238 11.1874C61.4302 11.1874 60.8195 11.4829 60.386 12.0543C59.9526 12.6059 59.7358 13.4137 59.7358 14.4776C59.7358 15.5218 59.9526 16.3296 60.386 16.901C60.8195 17.4723 61.4302 17.7679 62.238 17.7679ZM67.597 14.4776C67.597 16.0144 67.1636 17.3344 66.277 18.418C65.3904 19.5214 64.0506 20.073 62.238 20.073C60.4451 20.073 59.1054 19.5214 58.2188 18.418C57.3322 17.3344 56.879 16.0144 56.879 14.4776C56.879 12.9606 57.3322 11.6405 58.2188 10.5372C59.1054 9.43389 60.4451 8.88223 62.238 8.88223C64.0506 8.88223 65.3904 9.43389 66.277 10.5372C67.1636 11.6405 67.597 12.9606 67.597 14.4776Z" fill="white"/>
<path d="M74.0515 17.4589C74.7016 17.4589 75.2533 17.2028 75.6867 16.7299C76.1202 16.2374 76.3566 15.469 76.3566 14.4051C76.3566 13.42 76.1399 12.6713 75.7261 12.1393C75.2927 11.6271 74.741 11.3709 74.0318 11.3709C73.0663 11.3709 72.3965 11.8241 72.0418 12.7304C71.8448 13.2032 71.7463 13.7943 71.7463 14.5036C71.7463 15.1143 71.8448 15.6463 72.0615 16.1191C72.4359 17.0057 73.1058 17.4589 74.0515 17.4589ZM73.3816 8.96729C73.8938 8.96729 74.3667 9.04609 74.7607 9.20371C75.4109 9.47954 75.9626 9.99179 76.3763 10.7208V9.22341H79.0361V19.173C79.0361 20.5127 78.7997 21.5372 78.3465 22.2268C77.5782 23.4089 76.0611 24 73.8544 24C72.5147 24 71.4114 23.7241 70.5642 23.2119C69.717 22.6799 69.2441 21.8919 69.1653 20.8476H72.1403C72.2192 21.1629 72.3571 21.3993 72.5147 21.5372C72.8102 21.7933 73.3225 21.9116 74.0121 21.9116C74.9972 21.9116 75.667 21.5963 76.002 20.9265C76.2187 20.5127 76.3172 19.7837 76.3172 18.7986V18.1091C76.0611 18.5622 75.7853 18.8971 75.47 19.1336C74.9381 19.5473 74.2288 19.7443 73.3422 19.7443C72.0024 19.7443 70.9188 19.2715 70.1307 18.3258C69.3229 17.3801 68.9092 16.0994 68.9092 14.4839C68.9092 12.9274 69.3032 11.6271 70.0716 10.5632C70.8597 9.49924 71.963 8.96729 73.3816 8.96729Z" fill="white"/>
<path d="M87.2853 8.96729L87.6597 8.98699V11.8044C87.4824 11.7847 87.3247 11.765 87.1868 11.765C87.0489 11.7453 86.9504 11.7453 86.8716 11.7453C85.7683 11.7453 85.0196 12.0999 84.6452 12.8289C84.4285 13.2229 84.33 13.8534 84.33 14.7006V19.7049H81.552V9.22341H84.1724V11.0557C84.6058 10.3464 84.9605 9.87358 85.2757 9.61745C85.788 9.18401 86.4578 8.96729 87.2853 8.96729Z" fill="white"/>
<path d="M95.0274 14.6021C94.8698 14.7203 94.6925 14.7991 94.5152 14.8779C94.3379 14.937 94.1014 14.9961 93.7862 15.0552L93.1754 15.1734C92.5844 15.272 92.1706 15.4099 91.9342 15.5478C91.5007 15.8039 91.284 16.1782 91.284 16.7102C91.284 17.1831 91.4219 17.518 91.6781 17.7347C91.9342 17.9317 92.2494 18.0499 92.6238 18.0499C93.2148 18.0499 93.7665 17.8726 94.259 17.518C94.7516 17.1831 95.0077 16.5526 95.0274 15.6266V14.6021ZM93.3724 13.3214C93.8847 13.2623 94.2393 13.1835 94.4561 13.085C94.8501 12.9274 95.0471 12.6516 95.0471 12.3166C95.0471 11.8832 94.8895 11.5877 94.594 11.4103C94.2985 11.2527 93.865 11.1739 93.2936 11.1739C92.6435 11.1739 92.1706 11.3315 91.9145 11.6468C91.7175 11.8832 91.5795 12.2181 91.5204 12.6122H88.8803C88.9395 11.7059 89.1956 10.9375 89.6487 10.3464C90.3777 9.44014 91.619 8.96729 93.3724 8.96729C94.5349 8.96729 95.5397 9.20371 96.446 9.65686C97.3326 10.11 97.7857 10.9572 97.7857 12.2378V17.0451C97.7857 17.3801 97.7857 17.7741 97.8054 18.247C97.8251 18.6016 97.8645 18.8577 97.9631 18.9759C98.0419 19.1139 98.1798 19.2124 98.3571 19.2912V19.7049H95.3821C95.3033 19.4882 95.2442 19.2912 95.2048 19.1139C95.185 18.9168 95.1456 18.7198 95.1259 18.4637C94.7516 18.8774 94.3182 19.2321 93.8256 19.5276C93.2345 19.8625 92.5647 20.0399 91.816 20.0399C90.8703 20.0399 90.0822 19.764 89.4714 19.2124C88.8606 18.6804 88.5454 17.912 88.5454 16.9072C88.5454 15.6266 89.038 14.7006 90.0231 14.1095C90.5747 13.7943 91.3825 13.5776 92.4464 13.4397L93.3724 13.3214Z" fill="white"/>
<path d="M107.443 14.4615C107.443 13.6537 107.246 12.9444 106.891 12.314C106.517 11.6835 105.906 11.388 105.098 11.388C104.093 11.388 103.404 11.8608 103.029 12.7868C102.852 13.2991 102.754 13.9295 102.754 14.6979C102.754 15.9195 103.069 16.7666 103.719 17.2592C104.113 17.5547 104.566 17.6926 105.098 17.6926C105.847 17.6926 106.438 17.3971 106.832 16.8257C107.226 16.2347 107.443 15.4466 107.443 14.4615ZM105.886 8.98431C107.108 8.98431 108.132 9.43746 108.979 10.3438C109.846 11.2501 110.26 12.5701 110.26 14.3236C110.26 16.1756 109.846 17.5744 109.019 18.5398C108.191 19.5249 107.127 19.9978 105.807 19.9978C104.98 19.9978 104.29 19.8008 103.739 19.3673C103.423 19.1506 103.128 18.8157 102.852 18.3625V23.82H100.133V9.22074H102.754V10.7575C103.049 10.3044 103.364 9.94972 103.699 9.69359C104.31 9.22074 105.039 8.98431 105.886 8.98431Z" fill="white"/>
<path d="M118.018 8.95017C118.669 8.95017 119.26 9.06839 119.792 9.28511C120.324 9.52154 120.757 9.85647 121.092 10.3096C121.388 10.7037 121.565 11.1174 121.624 11.5311C121.683 11.9449 121.722 12.6148 121.722 13.5408V19.7075H118.925V13.324C118.925 12.7724 118.826 12.3192 118.629 11.9646C118.373 11.472 117.9 11.2356 117.211 11.2356C116.482 11.2356 115.93 11.472 115.556 11.9646C115.181 12.4374 115.004 13.127 115.004 14.0333V19.7075H112.265V5.58112H115.004V10.5854C115.398 9.97468 115.851 9.56094 116.383 9.30481C116.895 9.06839 117.447 8.95017 118.018 8.95017Z" fill="white"/>
<path d="M127.108 7.96687H124.33V5.44501L127.108 5.44501V7.96687ZM124.33 9.22781H127.108V19.7093H124.33V9.22781Z" fill="white"/>
<path d="M145.418 8.95834C146.048 8.95834 146.619 9.09626 147.112 9.37209C147.604 9.64792 148.018 10.042 148.314 10.5345V5.53018L151.092 5.53018V19.696H148.432V18.238C148.038 18.8685 147.604 19.3216 147.092 19.5975C146.6 19.8733 145.969 20.0309 145.22 20.0309C143.999 20.0309 142.974 19.5187 142.127 18.5336C141.3 17.5485 140.886 16.2678 140.886 14.7311C140.886 12.9382 141.3 11.5196 142.127 10.4951C142.935 9.4706 144.038 8.95834 145.418 8.95834ZM146.028 17.7061C146.797 17.7061 147.388 17.4302 147.782 16.8392C148.196 16.2678 148.393 15.5191 148.393 14.6128C148.393 13.3322 148.077 12.4062 147.427 11.8546C147.033 11.5196 146.56 11.362 146.028 11.362C145.24 11.362 144.649 11.6575 144.275 12.2683C143.9 12.8791 143.703 13.6277 143.703 14.5143C143.703 15.4797 143.9 16.2678 144.275 16.8392C144.669 17.4302 145.24 17.7061 146.028 17.7061Z" fill="#FF2981"/>
<path d="M157.728 11.1963C157.097 11.1963 156.605 11.3933 156.25 11.807C155.896 12.2011 155.679 12.733 155.6 13.4226H159.856C159.816 12.6936 159.58 12.142 159.186 11.7676C158.792 11.3933 158.319 11.1963 157.728 11.1963ZM157.728 8.95023C158.595 8.95023 159.383 9.10784 160.092 9.44278C160.782 9.75801 161.353 10.2703 161.806 10.9795C162.22 11.61 162.496 12.3193 162.614 13.1468C162.693 13.6196 162.713 14.3289 162.693 15.2155L155.521 15.2155C155.561 16.2794 155.896 17.0084 156.506 17.4418C156.9 17.698 157.354 17.8359 157.886 17.8359C158.437 17.8359 158.91 17.6782 159.265 17.3433C159.442 17.1857 159.619 16.9296 159.757 16.634H162.575C162.496 17.2448 162.161 17.8753 161.59 18.5254C160.703 19.5499 159.442 20.0622 157.826 20.0622C156.487 20.0622 155.305 19.6288 154.3 18.7619C153.275 17.9147 152.763 16.5158 152.763 14.5653C152.763 12.7527 153.216 11.3539 154.142 10.3885C155.068 9.42308 156.25 8.95023 157.728 8.95023Z" fill="#FF2981"/>
<path d="M171.021 9.2225H173.956L170.193 19.704H167.297L163.534 9.2225H166.607L168.794 16.9457L171.021 9.2225Z" fill="#FF2981"/>
<path fill-rule="evenodd" clip-rule="evenodd" d="M25.6032 15.7617V21.6723C25.6032 22.7603 24.721 23.6425 23.633 23.6425L15.7521 23.6425V19.7021H21.6627V14.7766H21.6637C21.6637 13.9929 22.1344 13.18 22.756 12.6874C23.3776 12.1946 23.633 12.1099 23.633 11.8213C23.633 11.5326 23.3776 11.4477 22.756 10.9551C22.1344 10.4628 21.6637 9.64959 21.6637 8.86594H21.6627V3.94042L19.6925 3.94042V0L23.633 0C24.721 0 25.6032 0.882161 25.6032 1.97021V7.88084H25.6037C25.6037 8.40319 25.8113 8.90436 26.1807 9.27353C26.3893 9.48237 26.64 9.63925 26.9129 9.73653C27.3067 9.87444 27.5707 10.2461 27.5707 10.6635C27.5734 11.341 27.5734 12.3015 27.5734 12.979C27.5734 13.3974 27.3087 13.7703 26.9136 13.9084C26.64 14.0033 26.3893 14.1601 26.1807 14.369C25.8113 14.7381 25.6037 15.2393 25.6037 15.7617H25.6032Z" fill="#FF2981"/>
<path fill-rule="evenodd" clip-rule="evenodd" d="M1.97018 15.7617V21.6723C1.97018 22.7603 2.85235 23.6425 3.9404 23.6425L11.8213 23.6425V19.7021H5.91062V14.7766H5.90963C5.90963 13.9929 5.439 13.18 4.81739 12.6874C4.19579 12.1946 3.9404 12.1099 3.9404 11.8213C3.9404 11.5326 4.19579 11.4477 4.81739 10.9551C5.439 10.4628 5.90963 9.64959 5.90963 8.86594H5.91062L5.91062 3.94042L7.88085 3.94042V0L3.9404 0C2.85235 0 1.97018 0.882161 1.97018 1.97021V7.88084H1.96969C1.96969 8.40319 1.76208 8.90436 1.39267 9.27353C1.18407 9.48237 0.933354 9.63925 0.660479 9.73653C0.266681 9.87444 0.00266552 10.2461 0.00266552 10.6635C-4.3869e-05 11.341 -4.00543e-05 12.3015 -4.00543e-05 12.979C-4.00543e-05 13.3974 0.264712 13.7703 0.659741 13.9084C0.933356 14.0033 1.18407 14.1601 1.39267 14.369C1.76208 14.7381 1.96969 15.2393 1.96969 15.7617H1.97018Z" fill="#FF2981"/>
<path d="M15.7617 0L11.8213 0V3.94043L15.7617 3.94043V0Z" fill="#FF2981"/>
<path fill-rule="evenodd" clip-rule="evenodd" d="M17.7284 7.87833H13.788L9.84753 15.7592H13.788L17.7284 7.87833Z" fill="#FF2981"/>
<path d="M134.463 20.0581C134.337 20.0655 134.209 20.0689 134.078 20.0689C132.391 20.0689 131.15 19.5687 130.355 18.5684C129.56 17.5677 129.162 16.2691 129.162 14.672C129.162 12.87 129.601 11.4687 130.48 10.4681C131.359 9.46772 132.571 8.96729 134.116 8.96729C135.431 8.96729 136.507 9.26232 137.344 9.8524C138.181 10.4425 138.677 11.4847 138.83 12.9789L136.021 12.9789C135.97 12.5878 135.839 12.2351 135.627 11.9209C135.319 11.4975 134.841 11.2857 134.194 11.2857C133.27 11.2857 132.638 11.7443 132.298 12.6614C132.119 13.1488 132.029 13.7968 132.029 14.6048C132.029 15.3744 132.119 15.9933 132.298 16.4615C132.626 17.3338 133.241 17.7699 134.146 17.7699C134.257 17.7699 134.363 17.7645 134.463 17.7542V20.0581Z" fill="white"/>
<path d="M139.705 16.1309H135.764V20.0713H139.705V16.1309Z" fill="#FF2981"/>
</svg>
