<svg width="174" height="24" viewBox="0 0 174 24" fill="none" xmlns="http://www.w3.org/2000/svg">
<path d="M36.277 7.96687H33.499V5.44501H36.277V7.96687ZM33.499 9.22781H36.277V19.7093H33.499V9.22781Z" fill="white"/>
<path d="M44.7368 8.96729C45.8204 8.96729 46.707 9.24312 47.3966 9.81448C48.0862 10.3858 48.4211 11.3315 48.4211 12.6516V19.7049H45.6234V13.3215C45.6234 12.7698 45.5446 12.356 45.4067 12.0605C45.1308 11.5089 44.6186 11.2527 43.8502 11.2527C42.9242 11.2527 42.2937 11.6468 41.9391 12.4349C41.7618 12.8486 41.6829 13.3806 41.6829 14.0307V19.7049H38.9443V9.24311H41.5844V10.7602C41.9391 10.2282 42.274 9.83418 42.5892 9.59775C43.1606 9.18401 43.8699 8.96729 44.7368 8.96729Z" fill="white"/>
<path d="M54.8144 5.37695C54.9917 5.37695 55.1493 5.37695 55.2872 5.39665C55.4252 5.39665 55.6222 5.41636 55.8586 5.43606V7.6624C55.7207 7.64269 55.4646 7.62299 55.0902 7.62299C54.7356 7.60329 54.4795 7.7018 54.3415 7.85942C54.2036 8.03674 54.1445 8.21405 54.1445 8.43078V9.31737H55.9374V11.2482H54.1445V19.7004H51.4059V11.2482H49.8691V9.31737H51.3665V8.6278C51.3665 7.52448 51.5635 6.7364 51.9379 6.32265C52.3319 5.69219 53.2973 5.37695 54.8144 5.37695Z" fill="white"/>
<path d="M62.2379 17.7678C63.026 17.7678 63.6565 17.4723 64.0702 16.901C64.5037 16.3296 64.7204 15.5218 64.7204 14.4776C64.7204 13.4137 64.5037 12.6059 64.0702 12.0542C63.6565 11.4829 63.026 11.1873 62.2379 11.1873C61.4301 11.1873 60.8193 11.4829 60.3859 12.0542C59.9525 12.6059 59.7357 13.4137 59.7357 14.4776C59.7357 15.5218 59.9525 16.3296 60.3859 16.901C60.8193 17.4723 61.4301 17.7678 62.2379 17.7678ZM67.5969 14.4776C67.5969 16.0144 67.1635 17.3344 66.2769 18.418C65.3903 19.5213 64.0505 20.073 62.2379 20.073C60.445 20.073 59.1053 19.5213 58.2187 18.418C57.3321 17.3344 56.8789 16.0144 56.8789 14.4776C56.8789 12.9605 57.3321 11.6405 58.2187 10.5372C59.1053 9.43386 60.445 8.8822 62.2379 8.8822C64.0505 8.8822 65.3903 9.43386 66.2769 10.5372C67.1635 11.6405 67.5969 12.9605 67.5969 14.4776Z" fill="white"/>
<path d="M74.0515 17.4589C74.7016 17.4589 75.2533 17.2028 75.6867 16.7299C76.1202 16.2374 76.3566 15.469 76.3566 14.4051C76.3566 13.42 76.1399 12.6713 75.7261 12.1393C75.2927 11.6271 74.741 11.3709 74.0318 11.3709C73.0663 11.3709 72.3965 11.8241 72.0418 12.7304C71.8448 13.2032 71.7463 13.7943 71.7463 14.5036C71.7463 15.1143 71.8448 15.6463 72.0615 16.1191C72.4359 17.0057 73.1058 17.4589 74.0515 17.4589ZM73.3816 8.96729C73.8938 8.96729 74.3667 9.04609 74.7607 9.20371C75.4109 9.47954 75.9626 9.99179 76.3763 10.7208V9.22341H79.0361V19.173C79.0361 20.5127 78.7997 21.5372 78.3465 22.2268C77.5782 23.4089 76.0611 24 73.8544 24C72.5147 24 71.4114 23.7241 70.5642 23.2119C69.717 22.6799 69.2441 21.8919 69.1653 20.8476H72.1403C72.2192 21.1629 72.3571 21.3993 72.5147 21.5372C72.8102 21.7933 73.3225 21.9116 74.0121 21.9116C74.9972 21.9116 75.667 21.5963 76.002 20.9265C76.2187 20.5127 76.3172 19.7837 76.3172 18.7986V18.1091C76.0611 18.5622 75.7853 18.8971 75.47 19.1336C74.9381 19.5473 74.2288 19.7443 73.3422 19.7443C72.0024 19.7443 70.9188 19.2715 70.1307 18.3258C69.3229 17.3801 68.9092 16.0994 68.9092 14.4839C68.9092 12.9274 69.3032 11.6271 70.0716 10.5632C70.8597 9.49924 71.963 8.96729 73.3816 8.96729Z" fill="white"/>
<path d="M87.2851 8.96729L87.6594 8.98699V11.8044C87.4821 11.7847 87.3245 11.765 87.1866 11.765C87.0487 11.7453 86.9502 11.7453 86.8714 11.7453C85.768 11.7453 85.0193 12.0999 84.645 12.8289C84.4283 13.2229 84.3298 13.8534 84.3298 14.7006V19.7049H81.5518V9.22341H84.1721V11.0557C84.6056 10.3464 84.9602 9.87358 85.2755 9.61745C85.7877 9.18401 86.4576 8.96729 87.2851 8.96729Z" fill="white"/>
<path d="M95.0279 14.6021C94.8703 14.7203 94.693 14.7991 94.5157 14.8779C94.3383 14.937 94.1019 14.9961 93.7867 15.0552L93.1759 15.1734C92.5848 15.272 92.1711 15.4099 91.9347 15.5478C91.5012 15.8039 91.2845 16.1782 91.2845 16.7102C91.2845 17.1831 91.4224 17.518 91.6785 17.7347C91.9347 17.9317 92.2499 18.0499 92.6243 18.0499C93.2153 18.0499 93.767 17.8726 94.2595 17.518C94.7521 17.1831 95.0082 16.5526 95.0279 15.6266V14.6021ZM93.3729 13.3214C93.8852 13.2623 94.2398 13.1835 94.4566 13.085C94.8506 12.9274 95.0476 12.6516 95.0476 12.3166C95.0476 11.8832 94.89 11.5877 94.5945 11.4103C94.2989 11.2527 93.8655 11.1739 93.2941 11.1739C92.644 11.1739 92.1711 11.3315 91.915 11.6468C91.718 11.8832 91.58 12.2181 91.5209 12.6122H88.8808C88.9399 11.7059 89.1961 10.9375 89.6492 10.3464C90.3782 9.44014 91.6194 8.96729 93.3729 8.96729C94.5354 8.96729 95.5402 9.20371 96.4465 9.65686C97.3331 10.11 97.7862 10.9572 97.7862 12.2378V17.0451C97.7862 17.3801 97.7862 17.7741 97.8059 18.247C97.8256 18.6016 97.865 18.8577 97.9635 18.9759C98.0424 19.1139 98.1803 19.2124 98.3576 19.2912V19.7049H95.3826C95.3038 19.4882 95.2446 19.2912 95.2052 19.1139C95.1855 18.9168 95.1461 18.7198 95.1264 18.4637C94.7521 18.8774 94.3186 19.2321 93.8261 19.5276C93.235 19.8625 92.5651 20.0399 91.8165 20.0399C90.8708 20.0399 90.0827 19.764 89.4719 19.2124C88.8611 18.6804 88.5459 17.912 88.5459 16.9072C88.5459 15.6266 89.0385 14.7006 90.0236 14.1095C90.5752 13.7943 91.383 13.5776 92.4469 13.4397L93.3729 13.3214Z" fill="white"/>
<path d="M107.442 14.4615C107.442 13.6537 107.245 12.9444 106.891 12.314C106.516 11.6835 105.906 11.388 105.098 11.388C104.093 11.388 103.403 11.8608 103.029 12.7868C102.852 13.2991 102.753 13.9295 102.753 14.6979C102.753 15.9195 103.068 16.7666 103.719 17.2592C104.113 17.5547 104.566 17.6926 105.098 17.6926C105.846 17.6926 106.438 17.3971 106.832 16.8257C107.226 16.2347 107.442 15.4466 107.442 14.4615ZM105.886 8.98431C107.107 8.98431 108.132 9.43746 108.979 10.3438C109.846 11.2501 110.26 12.5701 110.26 14.3236C110.26 16.1756 109.846 17.5744 109.019 18.5398C108.191 19.5249 107.127 19.9978 105.807 19.9978C104.98 19.9978 104.29 19.8008 103.738 19.3673C103.423 19.1506 103.128 18.8157 102.852 18.3625V23.82H100.133V9.22074H102.753V10.7575C103.049 10.3044 103.364 9.94972 103.699 9.69359C104.31 9.22074 105.039 8.98431 105.886 8.98431Z" fill="white"/>
<path d="M118.019 8.95017C118.669 8.95017 119.26 9.06839 119.792 9.28511C120.324 9.52154 120.757 9.85647 121.092 10.3096C121.388 10.7037 121.565 11.1174 121.624 11.5311C121.683 11.9449 121.723 12.6148 121.723 13.5408V19.7075H118.925V13.324C118.925 12.7724 118.826 12.3192 118.629 11.9646C118.373 11.472 117.9 11.2356 117.211 11.2356C116.482 11.2356 115.93 11.472 115.556 11.9646C115.182 12.4374 115.004 13.127 115.004 14.0333V19.7075H112.266V5.58112H115.004V10.5854C115.398 9.97468 115.851 9.56094 116.383 9.30481C116.896 9.06839 117.447 8.95017 118.019 8.95017Z" fill="white"/>
<path d="M127.108 7.96687H124.33V5.44501H127.108V7.96687ZM124.33 9.22781H127.108V19.7093H124.33V9.22781Z" fill="white"/>
<path d="M145.417 8.95831C146.048 8.95831 146.619 9.09623 147.112 9.37206C147.604 9.64789 148.018 10.0419 148.313 10.5345V5.53015L151.091 5.53015V19.696H148.432V18.238C148.038 18.8685 147.604 19.3216 147.092 19.5974C146.599 19.8733 145.969 20.0309 145.22 20.0309C143.999 20.0309 142.974 19.5186 142.127 18.5335C141.299 17.5484 140.886 16.2678 140.886 14.731C140.886 12.9381 141.299 11.5196 142.127 10.4951C142.935 9.47057 144.038 8.95831 145.417 8.95831ZM146.028 17.706C146.796 17.706 147.387 17.4302 147.782 16.8392C148.195 16.2678 148.392 15.5191 148.392 14.6128C148.392 13.3322 148.077 12.4062 147.427 11.8545C147.033 11.5196 146.56 11.362 146.028 11.362C145.24 11.362 144.649 11.6575 144.275 12.2683C143.9 12.879 143.703 13.6277 143.703 14.5143C143.703 15.4797 143.9 16.2678 144.275 16.8392C144.669 17.4302 145.24 17.706 146.028 17.706Z" fill="#FF2981"/>
<path d="M157.728 11.1962C157.097 11.1962 156.605 11.3933 156.25 11.807C155.895 12.201 155.679 12.733 155.6 13.4226H159.855C159.816 12.6936 159.58 12.1419 159.186 11.7676C158.792 11.3933 158.319 11.1962 157.728 11.1962ZM157.728 8.9502C158.595 8.9502 159.383 9.10781 160.092 9.44275C160.781 9.75798 161.353 10.2702 161.806 10.9795C162.22 11.61 162.496 12.3193 162.614 13.1467C162.693 13.6196 162.712 14.3289 162.693 15.2155L155.521 15.2155C155.56 16.2794 155.895 17.0083 156.506 17.4418C156.9 17.6979 157.353 17.8358 157.885 17.8358C158.437 17.8358 158.91 17.6782 159.264 17.3433C159.442 17.1857 159.619 16.9295 159.757 16.634H162.574C162.496 17.2448 162.161 17.8752 161.589 18.5254C160.703 19.5499 159.442 20.0622 157.826 20.0622C156.486 20.0622 155.304 19.6287 154.299 18.7618C153.275 17.9146 152.763 16.5158 152.763 14.5653C152.763 12.7527 153.216 11.3538 154.142 10.3884C155.068 9.42305 156.25 8.9502 157.728 8.9502Z" fill="#FF2981"/>
<path d="M171.021 9.22253H173.957L170.194 19.704H167.297L163.534 9.22253H166.608L168.795 16.9458L171.021 9.22253Z" fill="#FF2981"/>
<path fill-rule="evenodd" clip-rule="evenodd" d="M25.6031 15.7617L25.6031 21.6723C25.6031 22.7603 24.7209 23.6425 23.6328 23.6425H15.752L15.752 19.7021H21.6626L21.6626 14.7766H21.6636C21.6636 13.9929 22.1342 13.18 22.7559 12.6874C23.3775 12.1946 23.6328 12.1099 23.6328 11.8213C23.6328 11.5326 23.3775 11.4477 22.7559 10.9551C22.1342 10.4628 21.6636 9.64959 21.6636 8.86594H21.6626L21.6626 3.94042L19.6924 3.94042L19.6924 0L23.6328 0C24.7209 0 25.6031 0.882161 25.6031 1.97021L25.6031 7.88084H25.6036C25.6036 8.40319 25.8112 8.90436 26.1806 9.27353C26.3892 9.48237 26.6399 9.63925 26.9128 9.73653C27.3066 9.87444 27.5706 10.2461 27.5706 10.6635C27.5733 11.341 27.5733 12.3015 27.5733 12.979C27.5733 13.3974 27.3085 13.7703 26.9135 13.9084C26.6399 14.0033 26.3892 14.1601 26.1806 14.369C25.8112 14.7381 25.6036 15.2393 25.6036 15.7617H25.6031Z" fill="#FF2981"/>
<path fill-rule="evenodd" clip-rule="evenodd" d="M1.97018 15.7617L1.97018 21.6723C1.97018 22.7603 2.85235 23.6425 3.9404 23.6425H11.8213L11.8213 19.7021H5.91062L5.91062 14.7766H5.90963C5.90963 13.9929 5.439 13.18 4.81739 12.6874C4.19579 12.1946 3.9404 12.1099 3.9404 11.8213C3.9404 11.5326 4.19579 11.4477 4.81739 10.9551C5.439 10.4628 5.90963 9.64959 5.90963 8.86594H5.91062L5.91062 3.94042L7.88085 3.94042L7.88085 0L3.9404 0C2.85235 0 1.97018 0.882161 1.97018 1.97021L1.97018 7.88084H1.96969C1.96969 8.40319 1.76208 8.90436 1.39267 9.27353C1.18407 9.48237 0.933354 9.63925 0.660479 9.73653C0.266681 9.87444 0.00266552 10.2461 0.00266552 10.6635C-4.3869e-05 11.341 -4.00543e-05 12.3015 -4.00543e-05 12.979C-4.00543e-05 13.3974 0.264712 13.7703 0.659741 13.9084C0.933356 14.0033 1.18407 14.1601 1.39267 14.369C1.76208 14.7381 1.96969 15.2393 1.96969 15.7617H1.97018Z" fill="#FF2981"/>
<path d="M15.7617 0L11.8213 0L11.8213 3.94043L15.7617 3.94043L15.7617 0Z" fill="#FF2981"/>
<path fill-rule="evenodd" clip-rule="evenodd" d="M17.7285 7.8783L13.7881 7.8783L9.84766 15.7591L13.7881 15.7591L17.7285 7.8783Z" fill="#FF2981"/>
<path d="M134.463 20.0581C134.337 20.0655 134.209 20.0689 134.078 20.0689C132.391 20.0689 131.15 19.5687 130.355 18.5684C129.56 17.5677 129.162 16.2691 129.162 14.672C129.162 12.87 129.601 11.4687 130.48 10.4681C131.359 9.46772 132.571 8.96729 134.116 8.96729C135.431 8.96729 136.507 9.26232 137.344 9.8524C138.181 10.4425 138.677 11.4847 138.83 12.9789H136.021C135.97 12.5878 135.839 12.2351 135.627 11.9209C135.319 11.4975 134.841 11.2857 134.194 11.2857C133.27 11.2857 132.638 11.7443 132.298 12.6614C132.119 13.1488 132.029 13.7968 132.029 14.6048C132.029 15.3744 132.119 15.9933 132.298 16.4615C132.626 17.3338 133.241 17.7699 134.146 17.7699C134.257 17.7699 134.363 17.7645 134.463 17.7542V20.0581Z" fill="white"/>
<path d="M139.704 16.1309H135.764V20.0713H139.704V16.1309Z" fill="#FF2981"/>
</svg>
